# xmcd CD database file
#
# Track frame offsets:
#	150
#	29240
#	63562
#	103629
#	134715
#	151965
#	184252
#	215690
#	254350
#	290650
#
# Disc length: 4246 seconds
#
# Revision: 0
# Processed by: cddbd v1.5.1PL0 Copyright (c) Steve Scherf et al.
# Submitted via: CDex 1.51
#
DISCID=a510940a
DTITLE=Ken Kolyer - Boston Church Service
DYEAR=1972
DGENRE=Jazz
TTITLE0=Streets Of The City
TTITLE1=Just A Little While To Stay Here
TTITLE2=Old Rugged Cross
TTITLE3=Precious Lord, Lead Me On
TTITLE4=Ain't You Glad
TTITLE5=Sing On
TTITLE6=Nobody's Fault But Mine
TTITLE7=Just A Closer Walk With Thee
TTITLE8=Bye And Bye
TTITLE9=Walking With The King
EXTD=YEAR: 1972
EXTT0=
EXTT1=
EXTT2=
EXTT3=
EXTT4=
EXTT5=
EXTT6=
EXTT7=
EXTT8=
EXTT9=
PLAYORDER=
